<?xml version="1.0" standalone="no"?><!DOCTYPE svg PUBLIC "-//W3C//DTD SVG 1.1//EN" "http://www.w3.org/Graphics/SVG/1.1/DTD/svg11.dtd"><svg t="1582276077033" class="icon" viewBox="0 0 1024 1024" version="1.1" xmlns="http://www.w3.org/2000/svg" p-id="3669" xmlns:xlink="http://www.w3.org/1999/xlink" width="200" height="200"><defs><style type="text/css"></style></defs><path d="M520.96956582 75.15072835c-241.52934038 0-437.35612292 195.82909661-437.35612293 437.35612293s195.83141067 437.35612292 437.35612293 437.35612296c241.59876199 0 437.35612292-195.82909661 437.35612293-437.35612296s-195.75736096-437.35612292-437.35612293-437.35612293z m210.6482956 597.31970343c14.76828981 14.84233956 14.76828981 38.88998414 0 53.76934853-7.49521947 7.38645898-17.21655849 11.13522575-26.94715368 11.13522571-9.72133903 0-19.3686283-3.7464527-26.86153375-11.13522571l-155.07398531-155.08555558-155.07398527 155.08555558c-7.49521947 7.38645898-17.22350065 11.13522575-26.94715373 11.13522571s-19.3686283-3.7464527-26.86847588-11.13522571c-14.77291791-14.88167845-14.77291791-38.927009 0-53.76934853l155.09018367-155.11101017-155.08324155-155.1110102c-14.77754605-14.83771141-14.77754605-38.88767009 0-53.7693485 14.84233956-14.80762876 38.88767009-14.80762876 53.80868749 0l155.07398527 155.09018367 164.77912595-164.79763837c14.84233956-14.80762876 38.88998414-14.80762876 53.80868745 0 14.77060387 14.88399251 14.77060387 38.93163711 0 53.7762907l-164.80226651 164.8115227 155.09712585 155.11101017z" p-id="3670" fill="#2c2c2c"></path></svg>